<svg width="81" height="82" viewBox="0 0 81 82" fill="none" xmlns="http://www.w3.org/2000/svg">
<path d="M0 79.669H81.3708H0Z" fill="#2E3337"/>
<path fill-rule="evenodd" clip-rule="evenodd" d="M0 0.147522H3.69867V14.9422H7.39735V18.6409H11.096V14.9422H22.192V18.6409H25.8907V22.3396H29.5894V26.0382H25.8907V29.7369H18.4934V26.0382H11.096V22.3396H3.69867V26.0382H11.096V33.4356H7.39735V37.1343H11.096V40.8329H7.39735V44.5316H3.69867V48.2303H7.39735V44.5316H11.096V48.2303H22.192V51.929H14.7947V55.6276H7.39735V59.3263H14.7947V63.025H11.096V66.7237H14.7947V70.4223H11.096V74.121H3.69867V77.8197H11.096V74.121H14.7947V70.4223H22.192V66.7237H25.8907V74.121H22.192V77.8197H25.8907V74.121H29.5894V77.8197H33.2881V70.4223H36.9867V74.121H40.6854V77.8197H44.3841V74.121H48.0828V70.4223H51.7814V77.8197H66.5761V74.121H70.2748V77.8197H81.3708V81.5184H0V0.147522ZM70.2748 74.121H81.3708V70.4223H70.2748V74.121ZM73.9735 40.8329V37.1343H81.3708V33.4356H73.9735V29.7369H81.3708V26.0382H77.6722V22.3396H81.3708V18.6409H77.6722V14.9422H81.3708V11.2435H77.6722V7.54487H81.3708V3.8462H77.6722V0.147522H73.9735V3.8462H70.2748V0.147522H66.5761V7.54487H70.2748V11.2435H62.8775V7.54487H55.4801V0.147522H51.7814V7.54487H55.4801V11.2435H62.8775V14.9422H59.1788V18.6409H55.4801V14.9422H51.7814V11.2435H48.0828V14.9422H44.3841V22.3396H48.0828V29.7369H44.3841V26.0382H40.6854V14.9422H36.9867V11.2435H33.2881V0.147522H29.5894V3.8462H25.8907V0.147522H22.192V3.8462H18.4934V0.147522H14.7947V3.8462H11.096V0.147522H7.39735V3.8462H11.096V7.54487H7.39735V11.2435H11.096V7.54487H14.7947V11.2435H18.4934V7.54487H22.192V3.8462H25.8907V7.54487H29.5894V14.9422H25.8907V11.2435H22.192V14.9422H25.8907V18.6409H33.2881V26.0382H29.5894V29.7369H33.2881V37.1343H29.5894V44.5316H25.8907V48.2303H29.5894V44.5316H33.2881V48.2303H36.9867V44.5316H40.6854V40.8329H44.3841V48.2303H40.6854V51.929H36.9867V59.3263H33.2881V51.929H29.5894V55.6276H25.8907V59.3263H22.192V63.025H25.8907V66.7237H29.5894V70.4223H33.2881V66.7237H29.5894V63.025H36.9867V70.4223H40.6854V74.121H44.3841V66.7237H51.7814V70.4223H55.4801V74.121H62.8775V63.025H66.5761V66.7237H81.3708V63.025H77.6722V59.3263H81.3708V55.6276H77.6722V51.929H81.3708V48.2303H77.6722V44.5316H81.3708V40.8329H73.9735ZM40.6854 59.3263V51.929H44.3841V59.3263H40.6854ZM44.3841 59.3263V63.025H55.4801V66.7237H59.1788V55.6276H55.4801V59.3263H44.3841ZM40.6854 59.3263H36.9867V63.025H40.6854V59.3263ZM55.4801 44.5316V40.8329H44.3841V37.1343H48.0828V29.7369H51.7814V22.3396H48.0828V14.9422H51.7814V18.6409H55.4801V37.1343H62.8775V40.8329H73.9735V44.5316H70.2748V51.929H62.8775V48.2303H66.5761V44.5316H62.8775V48.2303H59.1788V44.5316H55.4801ZM55.4801 44.5316H48.0828V48.2303H44.3841V51.929H51.7814V48.2303H55.4801V44.5316ZM62.8775 33.4356H70.2748V37.1343H62.8775V33.4356ZM62.8775 29.7369V33.4356H59.1788V29.7369H62.8775ZM70.2748 14.9422H73.9735V11.2435H70.2748V14.9422ZM62.8775 29.7369H70.2748V14.9422H62.8775V18.6409H59.1788V22.3396H66.5761V26.0382H62.8775V29.7369ZM36.9867 29.7369V33.4356H44.3841V29.7369H36.9867ZM36.9867 29.7369V26.0382H33.2881V29.7369H36.9867ZM33.2881 18.6409V14.9422H36.9867V18.6409H33.2881ZM14.7947 66.7237H18.4934V63.025H14.7947V66.7237ZM14.7947 59.3263H18.4934V55.6276H14.7947V59.3263ZM11.096 37.1343H14.7947V44.5316H18.4934V37.1343H22.192V33.4356H18.4934V29.7369H14.7947V33.4356H11.096V37.1343ZM40.6854 3.8462H36.9867V0.147522H40.6854V3.8462ZM44.3841 3.8462V11.2435H40.6854V3.8462H44.3841ZM44.3841 3.8462H48.0828V0.147522H44.3841V3.8462ZM62.8775 3.8462H59.1788V0.147522H62.8775V3.8462ZM18.4934 18.6409H14.7947V22.3396H18.4934V18.6409ZM66.5761 55.6276V59.3263H70.2748V63.025H73.9735V55.6276H66.5761Z" fill="#2E3337"/>
</svg>
