<svg width="183" height="38" viewBox="0 0 183 38" fill="none" xmlns="http://www.w3.org/2000/svg">
<g clip-path="url(#clip0_84_263)">
<path d="M0.66679 24.904C0.740389 24.8613 0.856722 24.8328 0.880464 24.7711C1.66156 22.7189 2.92223 21.0748 4.94976 20.0688C4.57702 19.6655 4.09981 19.5469 3.70333 19.2954C2.78691 18.7189 2.25035 17.936 2.24323 16.8257C2.24085 16.4129 2.3738 16.2444 2.80827 16.2634C3.51577 16.2942 4.22802 16.2705 5.01861 16.2705C4.84767 15.8719 4.51529 15.7936 4.25888 15.6442C2.30495 14.503 1.69005 12.6715 1.58796 10.5623C1.5571 9.94548 1.89423 10.0475 2.26222 10.1827C3.6321 10.6881 5.03523 11.0083 6.50008 11.0819C7.07225 11.1104 7.29542 11.0368 7.12448 10.3678C6.79922 9.08427 6.13208 7.97869 5.50768 6.84227C4.94026 5.81024 4.98062 5.67027 6.15108 5.50657C8.72466 5.14595 11.2816 5.12697 13.7768 6.22068C13.8908 4.8138 14.1876 3.47335 14.8381 2.23729C15.2393 1.47098 15.472 1.44488 16.0228 2.11629C16.5451 2.75449 16.9772 3.47098 17.5351 4.07596C18.283 4.88735 18.5916 4.79008 18.9264 3.79601C19.3442 2.55046 19.9995 1.43776 20.8827 0.460303C21.3551 -0.0616427 21.754 -0.263303 22.2264 0.531477C22.5351 1.04868 23.0194 1.49233 23.5014 1.87193C24.9971 3.0558 26.0108 4.52199 26.3195 6.42472C26.7373 6.41048 26.9059 6.0902 27.1148 5.87193C28.3565 4.56944 29.8831 4.00241 31.6661 4.04986C32.4353 4.07122 33.2069 4.07833 33.9761 4.08308C34.4391 4.08782 34.5554 4.24203 34.3133 4.67145C33.9073 5.39031 33.506 6.11629 33.1642 6.86362C32.8175 7.62045 32.6276 8.4176 32.7962 9.26932C32.8721 9.65129 33.0051 9.77466 33.3897 9.61807C34.6599 9.10325 35.8208 9.53504 36.9794 10.0427C37.4827 10.2634 37.5943 10.465 37.2121 10.9348C36.3883 11.9384 35.6119 12.9822 34.8284 14.019C34.6148 14.3013 34.4248 14.6027 34.2563 14.9111C34.045 15.2954 34.0473 15.6371 34.6195 15.5777C35.7306 15.4615 36.4785 16.0617 37.1409 16.8067C38.0953 17.879 39.2349 18.6216 40.6499 18.9158C41.2909 19.0487 41.2743 19.369 41.0297 19.8624C39.5672 22.8019 37.2904 24.6572 33.9096 25.1578C34.1138 25.5255 34.2871 25.8601 34.4771 26.1827C35.46 27.8411 35.4528 29.5896 35.0184 31.4022C34.8925 31.9265 34.5958 31.8672 34.2325 31.8269C33.0716 31.7011 32.0269 31.2148 30.9135 30.7118C30.8755 31.2195 30.8351 31.6513 30.8138 32.0831C30.6927 34.7023 29.337 36.484 27.0365 37.6394C26.8371 37.7391 26.5711 37.7581 26.4524 37.9977C26.3337 37.9977 26.215 37.9977 26.0963 37.9977C25.7354 37.5611 25.8304 37.0321 25.8731 36.5505C25.9847 35.293 25.4553 34.3654 24.4605 33.6845C23.366 32.9372 22.452 32.0641 21.8513 30.8541C21.4264 30 20.593 29.8245 19.7122 29.9597C18.6581 30.121 17.9174 30.6952 17.604 31.7391C17.1386 33.2954 17.2051 34.8921 17.3143 36.4817C17.3927 37.6181 17.0532 37.9218 16.018 37.4781C13.9525 36.5932 12.293 35.3002 11.633 33.0297C11.481 32.5101 11.4644 31.9858 11.4383 31.4567C11.4003 30.6454 11.1392 30.4295 10.3248 30.4579C9.57223 30.484 9.05941 30.8968 8.64631 31.4734C8.50861 31.6655 8.39228 31.8719 8.26645 32.0712C8.06702 32.3868 7.94119 32.9111 7.51859 32.847C7.01527 32.7711 6.95829 32.2088 6.88706 31.7818C6.71375 30.7403 6.8467 29.7177 7.22657 28.7379C7.46873 28.1092 7.37851 27.7296 6.64253 27.5991C6.11072 27.5042 5.64776 27.2219 5.22991 26.8826C4.01434 25.8909 2.68719 25.535 1.17486 26.1353C1.01104 26.1993 0.832981 26.2373 0.659668 26.1424C0.66679 25.7296 0.66679 25.3168 0.66679 24.904Z" fill="#ED741D"/>
<path d="M57.5941 12.3582C54.4935 18.4602 51.3952 24.5623 48.2874 30.6619C47.7509 31.7129 47.2167 32.771 46.3026 33.5706C45.4479 34.3179 44.5007 34.5385 43.7837 34.1518C43.0453 33.7532 42.6559 32.7497 42.9124 31.6512C43.3516 29.777 44.1398 28.0237 44.9399 26.2823C47.5538 20.5883 50.55 15.1032 54.0329 9.88847C55.182 8.16842 56.4284 6.51243 58.1496 5.28823C58.9284 4.73307 59.7569 4.29654 60.7161 4.13283C62.1596 3.88847 63.3015 4.53378 63.8001 5.90508C64.2916 7.25976 64.1539 8.6358 63.8856 10.0071C62.9834 14.6643 62.0765 19.3214 61.1743 23.9786C61.1316 24.1993 61.1387 24.427 61.1173 24.6999C61.5376 24.5195 61.642 24.1566 61.8296 23.8766C65.4834 18.3962 69.1633 12.9347 73.4297 7.89559C74.4814 6.65478 75.5712 5.44007 76.9125 4.4982C77.7506 3.90982 78.6742 3.13639 79.7402 3.76985C80.8062 4.40092 80.6898 5.58716 80.5996 6.65004C80.4524 8.37008 79.7734 9.95964 79.2772 11.5919C77.5726 17.2028 76.0792 22.8802 73.9282 28.3487C73.5175 29.395 73.0498 30.4104 72.3304 31.293C71.934 31.7793 71.4876 32.2111 70.9226 32.4887C69.9112 32.9869 69.1087 32.6287 68.7858 31.5516C68.4606 30.465 68.6505 29.3879 68.876 28.3155C70.0655 22.669 72.1666 17.312 74.1229 11.9074C74.3366 11.3167 74.688 10.7497 74.6357 10.0712C74.2108 10.0427 74.1229 10.3819 73.952 10.5978C70.8086 14.5978 68.1733 18.949 65.2341 23.0889C64.2607 24.4602 63.2541 25.8102 62.2427 27.1554C61.6705 27.9146 61.0081 28.5907 60.1677 29.0652C58.7408 29.8695 57.492 29.4472 56.8367 27.9525C56.1886 26.4721 56.4094 24.9418 56.5756 23.4187C56.9626 19.8434 57.3685 16.2728 57.7674 12.6999C57.8695 12.5433 57.8529 12.3819 57.7888 12.2182C57.7175 12.2538 57.6606 12.3108 57.5941 12.3582Z" fill="#66B337"/>
<path d="M167.361 11.6584C167.059 15.8316 164.497 19.3737 160.347 21.8767C158.241 23.1483 155.92 23.86 153.462 24.0261C152.541 24.0878 152.04 24.401 151.781 25.3191C151.337 26.9063 150.78 28.4603 150.252 30.0237C150.006 30.7568 149.63 31.4259 149.092 31.9905C148.6 32.5054 148.03 32.9134 147.287 32.6596C146.582 32.4176 146.397 31.7604 146.309 31.0985C146.167 30.0309 146.321 28.9751 146.563 27.9407C147.643 23.312 149.103 18.8019 151.01 14.4437C151.53 13.2527 152.13 12.0949 153.042 11.1412C153.531 10.6287 154.072 10.0546 154.868 10.2989C155.73 10.5647 155.803 11.3855 155.848 12.121C155.903 12.9799 155.72 13.8173 155.449 14.6358C154.877 16.3701 154.338 18.1163 153.754 19.8458C153.581 20.3606 153.614 20.5338 154.222 20.4389C158.467 19.777 162.819 15.5279 163.434 11.414C163.83 8.7687 162.463 7.13406 159.756 7.07949C157.921 7.04391 156.183 7.55636 154.493 8.20642C153.5 8.58839 152.536 9.04628 151.561 9.47095C150.799 9.8031 150.032 10.1186 149.175 10.0783C148.275 10.0356 147.954 9.5184 148.365 8.71176C148.536 8.37724 148.757 8.02374 149.049 7.79836C152.532 5.0961 156.404 3.30488 160.901 3.6394C164.979 3.94308 167.391 6.81615 167.361 11.6584Z" fill="#FDCB00"/>
<path d="M124.963 18.5148C122.845 21.1673 120.683 23.7841 118.256 26.1685C117.496 26.9134 116.727 27.656 115.823 28.223C115.167 28.6358 114.443 29.051 113.672 28.5789C112.91 28.1139 112.924 27.2717 112.964 26.5125C113.054 24.8233 113.498 23.2052 114.047 21.6109C114.932 19.0226 116.029 16.4982 116.511 13.7841C116.599 13.293 116.684 12.7829 116.642 12.2942C116.573 11.4899 117.003 11.4022 117.617 11.4971C118.589 11.6442 119.429 12.4982 119.676 13.5777C119.961 14.828 119.716 16.038 119.381 17.2385C118.902 18.9466 118.109 20.5338 117.48 22.1851C117.2 22.9205 116.95 23.6631 116.806 24.5552C117.72 24.0664 118.261 23.3618 118.84 22.7046C121.307 19.9146 123.415 16.8399 125.827 14.0071C126.456 13.2669 127.074 12.503 128.035 12.1424C129.229 11.6916 130.008 12.1376 130.212 13.3808C130.307 13.9549 130.186 14.4959 130.034 15.0344C128.847 19.1981 127.363 23.2693 126.2 27.4401C125.799 28.8778 125.037 28.9941 123.985 27.936C123.104 27.051 123.09 26.0024 123.268 24.8897C123.505 23.4259 123.975 22.0356 124.543 20.6691C124.78 20.0997 124.982 19.516 125.2 18.9371C125.16 18.7734 125.509 18.3986 124.963 18.5148Z" fill="#66B337"/>
<path d="M99.5382 25.9596C99.5263 26.2064 99.3815 26.5456 99.1892 26.4294C98.8093 26.1992 99.2604 25.9786 99.3411 25.7485C99.4076 25.8196 99.4741 25.8884 99.5382 25.9596Z" fill="#E0EFD7"/>
<path d="M25.2013 25.0724C24.3324 25.7818 23.7507 26.7758 22.801 27.4117C22.3357 27.7248 21.9036 28.0878 21.3789 28.3013C20.1942 28.7877 19.1828 28.1614 19.1638 26.8968C19.1235 24.0522 20.4815 21.8102 22.4093 19.8814C23.4801 18.8091 24.8119 18.1637 26.4145 18.3512C26.7065 18.3844 27.0033 18.4176 27.2811 18.5006C27.6562 18.6098 27.9838 18.7331 28.3281 18.3749C28.6201 18.0712 29.0427 18.0807 29.4036 18.2705C29.7549 18.4556 29.6861 18.8375 29.6576 19.1483C29.565 20.159 29.1258 21.07 28.7863 22.0095C28.3376 23.2551 27.8414 24.4817 27.4021 25.7296C27.3143 25.9787 27.0983 26.3512 27.3784 26.5481C27.7013 26.7735 27.9719 26.4342 28.2189 26.242C29.5128 25.2314 30.047 23.7984 30.3176 22.2681C30.9895 18.4674 30.0897 15.0866 27.1695 12.4745C24.2588 9.8743 20.7973 9.11273 17.0912 10.4318C13.3757 11.7557 11.0917 14.4508 10.4626 18.3701C10.0685 20.8185 10.5148 23.0083 11.5167 24.4983C11.7755 24.3013 11.7897 23.9929 11.8728 23.7319C12.6373 21.3429 13.4896 18.9894 14.7099 16.7877C14.9782 16.3013 15.294 15.8268 15.6667 15.4164C16.2033 14.8257 16.6283 14.9443 16.8799 15.7011C17.1506 16.5172 16.8277 17.2646 16.5713 18.0072C16.3505 18.6454 16.0869 19.2741 15.8021 19.8862C15.5813 20.363 15.6833 20.5338 16.2128 20.4745C18.3376 20.242 21.0655 17.4923 21.2792 15.3524C21.3861 14.2895 20.6145 13.4425 19.4677 13.4093C18.0053 13.3666 16.6971 13.9384 15.3866 14.4817C15.1135 14.5955 14.85 14.7284 14.5699 14.8257C14.2137 14.949 13.7959 15.1673 13.5419 14.7142C13.3068 14.2919 13.5157 13.9099 13.8624 13.6228C15.7332 12.0688 17.8509 11.2171 20.3177 11.4805C20.9896 11.5516 21.614 11.8648 22.1315 12.3488C23.5964 13.7225 23.9098 15.8316 22.8604 17.694C21.2056 20.6287 18.6629 22.2397 15.3153 22.5932C14.926 22.6335 14.7337 22.7592 14.6292 23.1222C14.3301 24.1685 14.0119 25.21 13.6962 26.2515C13.5703 26.6667 13.6914 26.9822 14.0001 27.2836C14.812 28.0688 15.7285 28.7047 16.7565 29.2219C15.2346 31.2503 15.5148 33.4876 15.9516 35.8387C14.2731 35.0985 13.5632 33.758 13.1359 32.2183C12.9293 31.4781 12.8795 30.707 12.9341 29.9407C12.9697 29.4306 12.7441 29.2076 12.2693 29.0748C10.9968 28.7236 9.76221 28.6216 8.50629 29.573C8.50866 28.4389 9.21378 27.8316 9.62451 27.0914C9.74559 26.8755 10.1278 26.7308 9.95927 26.4437C9.81444 26.1993 9.46782 26.3274 9.21141 26.3227C8.0457 26.3037 7.02244 26.0499 6.23897 25.0605C5.51486 24.1448 4.39663 24.2041 3.37575 24.2468C2.76559 24.2729 2.85581 24.0665 3.02912 23.7201C3.52532 22.7379 4.40613 22.1898 5.37478 21.7936C6.13926 21.4805 6.93222 21.2171 7.73706 21.0344C8.41132 20.8826 8.79356 20.6572 8.6891 19.8767C8.57514 19.025 7.95786 19.2432 7.47353 19.2551C5.82824 19.2978 4.43699 18.8446 3.52294 17.3808C3.49445 17.3357 3.4992 17.2717 3.46122 17.0795C4.62455 17.3002 5.75702 17.3144 6.89186 17.2954C7.38806 17.2883 8.08844 17.3903 8.22851 16.8873C8.39233 16.2966 7.65159 16.1803 7.23137 15.9645C6.23185 15.452 5.24658 14.9206 4.3349 14.2563C3.68201 13.7794 3.3069 13.1246 3.03624 12.3986C2.95077 12.1685 2.86056 11.7841 3.35913 11.9692C4.97118 12.5671 6.6402 12.2752 8.28786 12.3274C8.86241 12.3464 9.43695 12.401 10.2086 12.4532C8.90752 10.9277 9.0191 8.96089 7.9721 7.47098C7.77742 7.1934 7.95786 7.11273 8.16678 7.03207C8.7342 6.8138 9.33486 6.76161 9.91653 6.88735C11.5499 7.23847 13.0267 7.88142 13.9478 9.37133C14.3372 10 14.6886 10.2302 15.294 9.60621C15.529 9.36422 15.9018 9.25745 16.2603 9.06291C14.9117 7.72246 14.8738 6.12578 15.2346 4.44369C15.2892 4.18747 15.2964 3.81736 15.5599 3.77465C15.8923 3.72246 15.9825 4.12578 16.1226 4.36066C16.6472 5.24796 17.1577 6.14239 17.8818 6.89684C18.3875 7.42353 18.9549 7.7533 19.7004 7.45674C20.4269 7.1673 20.4459 6.52436 20.4008 5.89328C20.3129 4.62163 20.4791 3.43064 21.3077 2.38913C21.6068 2.01427 21.8015 1.81024 22.1054 2.38438C22.6277 3.37133 23.6486 3.97394 24.0973 5.06528C24.5508 6.16611 24.6244 7.15544 24.0142 8.18272C23.7198 8.67857 23.7175 8.99885 24.4463 8.99411C24.793 8.99174 25.2037 9.03681 25.4743 9.21949C26.3551 9.81973 26.557 9.39268 26.8537 8.58604C27.6372 6.44132 29.6885 5.20526 31.9225 5.36184C32.2478 5.38557 32.2692 5.49945 32.1671 5.74144C32.0175 6.09494 31.8917 6.45793 31.7136 6.79482C30.8637 8.39862 30.9776 10.0807 31.2364 11.7936C31.3266 12.3962 31.4952 12.3488 31.8656 12.0048C32.4567 11.452 33.1428 11.0558 33.9263 10.8304C34.3086 10.7213 34.6884 10.707 35.0635 10.8067C35.2226 10.847 35.4363 10.885 35.4576 11.1032C35.4719 11.2693 35.3223 11.3476 35.2012 11.4306C33.1595 12.8162 32.7297 14.8992 32.687 17.1578C32.6775 17.6442 32.7369 17.9265 33.3114 17.6062C34.3822 17.0107 35.3247 17.1958 36.215 18.0333C37.0103 18.783 37.9054 19.4259 38.9738 19.7557C39.3892 19.8838 39.4082 20.0854 39.2112 20.401C38.1191 22.1448 35.384 24.2752 32.5778 23.8743C32.1694 23.815 31.5474 23.5967 31.3527 24.0309C31.1153 24.5623 31.8157 24.6715 32.1243 24.9348C33.7221 26.299 34.2397 28.057 34.1186 30.0783C34.0854 30.6382 33.7079 30.6003 33.366 30.5362C32.2834 30.3322 31.2222 30.0641 30.4601 29.1673C30.32 29.0012 30.2013 28.7663 29.8665 28.7569C29.7763 30.0119 29.9781 31.2812 29.6576 32.5101C29.3513 33.6869 29.0094 34.8446 27.9197 35.5872C27.7511 35.7011 27.6087 35.9004 27.3808 35.8197C27.1244 35.7296 27.1908 35.4781 27.1908 35.2836C27.1908 33.9146 26.6947 32.9063 25.2987 32.4223C24.5223 32.1519 24.2042 31.3761 23.8053 30.7308C23.575 30.3607 22.9577 30.1139 23.0812 29.7106C23.2023 29.3215 23.8433 29.3737 24.2422 29.1958C24.9164 28.8945 25.5693 28.5718 26.329 28.0214C25.0138 27.9621 25.1799 27.1293 25.2227 26.3844C25.2417 26.0665 25.3366 25.7509 25.3984 25.433C25.4506 25.2575 25.6833 24.9822 25.2013 25.0724Z" fill="#FDCB00"/>
<path d="M25.2013 25.0723C25.2939 24.8968 25.4007 24.7355 25.669 24.6382C25.6595 24.9585 25.6002 25.2194 25.3912 25.4401C25.3817 25.293 25.3509 25.153 25.2013 25.0723Z" fill="#F18915"/>
<path d="M113.767 12.6026C113.007 11.153 111.642 10.6216 110.094 11.1554C108.883 11.5729 107.957 12.3938 107.112 13.3191C105.07 15.5492 103.762 18.2325 102.387 20.8778C101.492 22.6026 100.676 24.3701 99.5383 25.962C99.2131 26.1305 99.3318 25.8909 99.3413 25.7509C99.3911 25.554 99.4267 25.3523 99.4956 25.1649C100.716 21.8149 102.112 18.5291 103.107 15.1008C103.377 14.1661 103.593 13.2076 103.351 12.2254C103.133 11.3428 102.575 11.153 101.851 11.7153C101.184 12.2301 100.73 12.9253 100.312 13.6418C99.2819 15.4045 98.5483 17.3049 97.7648 19.1815C96.7392 21.6441 94.8897 23.478 93.0118 25.2835C92.8503 25.4377 92.6485 25.656 92.3945 25.5397C92.1238 25.414 92.2188 25.1222 92.252 24.9063C92.3185 24.4721 92.3992 24.0332 92.5322 23.6133C93.5103 20.4935 94.5027 17.376 95.4928 14.2586C95.6637 13.7224 95.818 13.1839 95.7919 12.6145C95.7349 11.331 94.8327 10.8327 93.7193 11.4733C93.4913 11.6038 93.2468 11.7556 93.0925 11.9573C92.7506 12.4081 92.3969 12.382 91.941 12.1447C91.1481 11.7343 90.3171 11.414 89.3959 11.478C87.5583 11.6109 85.8513 12.1162 84.3343 13.1957C81.5612 15.1696 79.7783 17.8719 78.5579 20.9751C77.8077 22.8826 77.283 24.8446 77.67 26.9276C77.9763 28.5718 79.1467 29.4045 80.8134 29.1815C81.9981 29.0225 82.9857 28.4247 83.9212 27.739C85.868 26.3108 87.4847 24.5504 88.9971 22.688C89.0992 22.5623 89.1348 22.3393 89.4126 22.5267C89.1348 23.6726 88.6599 24.79 88.6552 26.0047C88.6505 27.0534 88.819 28.0474 89.8423 28.5907C90.8537 29.1269 91.8081 28.7544 92.6841 28.1898C93.6457 27.5682 94.3057 26.6501 94.9918 25.7604C95.3717 25.2693 95.6898 24.7165 96.3166 24.223C96.1456 24.8659 96.0103 25.3452 95.8916 25.8268C95.3456 28.0546 94.5597 30.2372 94.4125 32.5457C94.3508 33.5113 94.2938 34.6643 95.4073 35.0652C96.497 35.4591 97.2045 34.5528 97.8455 33.8221C98.8118 32.7212 99.3816 31.3784 100.037 30.0925C102.209 25.8363 104.329 21.5516 107.069 17.6133C107.843 16.4982 108.648 15.395 109.802 14.6192C110.068 14.4413 110.372 14.1661 110.685 14.3179C111.065 14.503 110.854 14.9039 110.794 15.1934C109.961 19.1744 107.993 22.5362 105.115 25.3926C104.719 25.7865 104.253 26.121 103.881 26.5338C103.558 26.892 103.078 27.3025 103.384 27.8387C103.695 28.382 104.308 28.2776 104.835 28.1945C106.309 27.9644 107.594 27.3238 108.705 26.344C111.305 24.0569 113.05 21.2147 114.049 17.9359C114.593 16.159 114.671 14.3298 113.767 12.6026ZM90.8442 15.8576C88.6172 19.0913 86.2312 22.1945 83.2303 24.7734C82.8528 25.0985 82.4373 25.3879 82.0171 25.6584C81.7797 25.8102 81.4948 26.0546 81.2099 25.8671C80.8799 25.6512 81.0223 25.2669 81.0935 24.9703C81.2194 24.4579 81.3879 23.9525 81.5826 23.4614C82.6557 20.7402 84.1823 18.3155 86.3618 16.3321C87.3565 15.4282 88.4582 14.6999 89.8494 14.6358C90.0227 14.6501 90.1723 14.6524 90.3147 14.6785C91.2739 14.8541 91.3878 15.07 90.8442 15.8576Z" fill="#66B337"/>
<path d="M182.026 11.3405C181.095 10.9205 180.428 11.4852 179.839 12.0807C179.509 12.4152 179.243 12.3488 178.899 12.178C178.07 11.7699 177.22 11.4116 176.268 11.4828C174.623 11.6062 173.044 11.9834 171.653 12.9039C167.833 15.4306 165.642 19.0771 164.474 23.3974C164.151 24.5955 163.989 25.8221 164.284 27.07C164.678 28.745 165.953 29.5279 167.619 29.0771C168.491 28.8422 169.248 28.3796 169.965 27.8505C171.736 26.5386 173.189 24.9039 174.649 23.2764C174.929 22.9656 175.131 22.5433 175.694 22.3986C175.639 23.2645 175.288 23.9858 175.112 24.745C174.813 26.0332 174.903 27.274 175.606 28.4105C176.221 29.4045 177.045 29.4069 177.712 28.4579C178.106 27.8956 178.315 27.2479 178.507 26.5955C178.987 24.9561 179.445 23.3096 179.958 21.6797C180.789 19.0392 181.681 16.4152 182.498 13.7699C182.852 12.6169 182.631 11.6133 182.026 11.3405ZM177.681 15.8956C175.411 19.108 172.937 22.1471 169.993 24.7829C169.488 25.2361 168.961 25.6702 168.343 25.9715C167.843 26.2159 167.61 26.0427 167.653 25.4994C167.669 25.2954 167.7 25.0866 167.764 24.8944C168.866 21.5564 170.627 18.6311 173.277 16.28C174.26 15.4069 175.369 14.7355 176.62 14.643C176.857 14.6572 176.978 14.6548 177.095 14.6714C178.156 14.8114 178.282 15.0463 177.681 15.8956Z" fill="#FDCB00"/>
<path d="M144.661 17.8126C143.928 17.3096 143.187 17.6845 142.477 18C142.071 18.1803 141.713 18.5148 141.164 18.4745C141.551 17.1957 141.988 16.0095 142.135 14.7402C142.427 12.2349 141.041 10.8422 138.562 11.312C135.426 11.9075 133.396 13.8743 132.347 16.7829C131.499 19.134 133.118 21.3499 135.64 21.5136C136.136 21.5469 136.634 21.5184 137.242 21.5184C136.52 23.1435 134.393 25.637 133.116 26.4199C132.822 26.6002 132.487 26.8707 132.143 26.5955C131.812 26.3322 131.945 25.9454 132.055 25.6085C132.273 24.9371 132.52 24.2728 132.734 23.5991C132.945 22.9348 132.667 22.4935 132.014 22.325C131.407 22.1685 130.789 22.1352 130.189 22.4057C128.633 23.1056 127.705 25.4448 128.294 27.2005C128.809 28.7378 130.279 29.3523 132.264 28.8399C132.662 28.7378 133.057 28.5955 133.429 28.4223C134.835 27.7699 135.889 26.6951 136.85 25.5255C137.981 24.1518 138.861 22.6121 139.79 21.1056C140.219 20.4057 140.768 19.879 141.736 19.6916C141.086 21.2978 140.476 22.8185 139.858 24.3345C139.32 25.656 139.239 26.9775 139.956 28.2539C140.457 29.1459 141.285 29.2432 142.014 28.5338C142.553 28.0095 142.905 27.3642 143.137 26.6501C143.683 24.968 144.232 23.2883 144.782 21.6085C144.965 21.0486 145.234 20.5148 145.262 19.9146C145.298 19.1483 145.397 18.3155 144.661 17.8126ZM138.7 18.9371C138.246 19.6845 137.544 19.8197 136.774 19.5682C136.012 19.3191 135.746 18.688 135.853 17.9549C136.088 16.3179 136.988 15.0842 138.358 14.1898C138.721 13.9526 139.184 13.6275 139.578 13.8387C140.027 14.0807 139.908 14.6643 139.951 15.1364C139.851 16.503 139.412 17.7651 138.7 18.9371Z" fill="#67B337"/>
<path d="M26.7112 20.5006C26.6305 20.6359 26.5498 20.7948 26.4477 20.9348C25.1799 22.6667 23.8456 24.344 22.1695 25.713C21.9059 25.9289 21.5926 26.2824 21.2507 26.0427C20.9302 25.8173 21.2127 25.4401 21.3077 25.1483C21.8656 23.4235 22.9031 22.0143 24.2587 20.8328C24.8 20.3607 25.4387 20.0499 26.2008 20.1258C26.4287 20.1495 26.6851 20.1424 26.7112 20.5006Z" fill="#ED751D"/>
<path d="M27.2003 28.5789C27.9957 29.4401 28.5227 30.2016 28.8005 31.1174C28.8504 31.2859 28.9263 31.4543 28.9287 31.6251C28.9358 32.2183 28.9287 32.9869 28.2924 33.1079C27.7013 33.2218 27.5422 32.4555 27.3879 31.9786C27.0484 30.9395 27.1505 29.8576 27.2003 28.5789Z" fill="#ED761C"/>
<path d="M28.4895 11.4235C28.169 10.2681 27.9102 9.36184 28.2782 8.44369C28.4895 7.917 28.8598 7.36658 29.5317 7.62756C30.2369 7.90039 30.0873 8.50537 29.8048 9.03918C29.4249 9.75804 29.0189 10.465 28.4895 11.4235Z" fill="#F44900"/>
<path d="M9.19006 25.0984C8.63213 25.134 8.02435 24.9205 8.01248 24.2728C8.00061 23.6892 8.69623 23.6868 9.13308 23.6987C9.65539 23.7105 10.3439 23.8647 10.389 24.446C10.4436 25.115 9.7741 25.0913 9.19006 25.0984Z" fill="#ED781B"/>
</g>
<defs>
<clipPath id="clip0_84_263">
<rect width="182" height="38" fill="white" transform="translate(0.666748)"/>
</clipPath>
</defs>
</svg>
