<svg width="32" height="32" viewBox="0 0 32 32" fill="none" xmlns="http://www.w3.org/2000/svg">
<circle cx="16" cy="16" r="16" fill="#DEDEE9"/>
<path d="M23.3125 16.3161C22.625 15.4627 22.3125 14.7231 22.3125 13.4667V13.0395C22.3125 11.4022 21.958 10.3473 21.1873 9.29238C19.9993 7.65409 17.9994 6.66669 16.0416 6.66669H15.9584C14.0417 6.66669 12.1045 7.60875 10.896 9.18054C10.0831 10.2566 9.68746 11.3569 9.68746 13.0395V13.4667C9.68746 14.7231 9.39562 15.4627 8.68752 16.3161C8.1665 16.9448 8 17.7528 8 18.6274C8 19.503 8.27033 20.3322 8.81286 21.0062C9.52096 21.8143 10.5209 22.3302 11.5424 22.4198C13.0212 22.5992 14.5001 22.6667 16.0005 22.6667C17.4999 22.6667 18.9788 22.5538 20.4586 22.4198C21.4791 22.3302 22.479 21.8143 23.1871 21.0062C23.7287 20.3322 24 19.503 24 18.6274C24 17.7528 23.8335 16.9448 23.3125 16.3161Z" fill="white"/>
<path d="M17.8523 24.0749C17.3946 23.975 14.6055 23.975 14.1478 24.0749C13.7565 24.1672 13.3334 24.3819 13.3334 24.8528C13.3561 25.302 13.6136 25.6985 13.9704 25.95L13.9694 25.9509C14.4308 26.3182 14.9722 26.5518 15.5391 26.6356C15.8413 26.678 16.1488 26.6761 16.4619 26.6356C17.0279 26.5518 17.5693 26.3182 18.0306 25.9509L18.0297 25.95C18.3864 25.6985 18.644 25.302 18.6667 24.8528C18.6667 24.3819 18.2436 24.1672 17.8523 24.0749Z" fill="white"/>
</svg>
